<svg xmlns="http://www.w3.org/2000/svg" width="430" height="430" viewBox="0 0 90 90"><path d="M65.7 10.5c1.2 2.7 1.9 7.1 0.8 10.3 4.6 3.9 6.2 13.5 4 21.4C77.1 42.7 84.9 42 90 44c-4.7-0.6-11.2-1.8-17.3-1.4 -1.2 0.1-2.9 0-2.8 1.6 7.1 0.6 14.1 1.2 19.9 3 -5.8-0.9-12.8-2.4-19.9-2.6 -3 5.8-8.9 8.7-17.1 9.3 0.9 1.9 2.6 2.7 3 5.7 0.6 4.6-1 11.4 0.6 14.5 0.7 1.5 2 1.5 2.8 2.8 -2 2.4-7-0.3-7.6-2.8 -1-4.3 1.5-11-1.2-13.9 0.2 4.7-1.1 11.3 0.2 15.4 0.5 1.6 2 2.3 1.6 3.8 -9.4 0.9-5.4-12.1-7-19.8 -1.4 0.1-0.8 2.1-0.8 3 0 7.5 1.5 17.8-6.6 16.8 -0.2-1.6 1.1-2.1 1.6-3.6 1.5-4.2-0.3-10.5 0.4-15.7 -3.1 2.3 0.3 10.5-1.6 14.7 -1.1 2.4-4.7 3.5-7.4 2.4 0.4-1.8 2.2-1.5 3-3.2 1.1-2.3 0-5.7 0.4-9.1 -5.7 1.1-10.2-0.2-12.3-3.8 -1-1.6-1.2-3.5-2.4-5 -1.2-1.4-3-1.6-3.6-3.6 7.1-1.7 7.4 7.3 13.7 7.5 2 0.1 3-0.6 4.8-1 0.5-2.3 1.6-4 3.2-5.2 -7.9-1.1-14.5-3.6-17.5-9.5 -7.2 0.4-13.8 1.3-19.9 2.8 5.5-2 12.4-2.7 19.7-3 -0.4-2.6-4.2-1.9-6.6-1.8C9 42.8 3.5 43.3 0 44c5-1.8 12.1-1.6 18.9-1.6 -2.1-6.5-1.4-16.9 3.2-20.8C20.8 18.3 21.2 13 22.9 10.5c5.1 0.2 8.2 2.4 11.4 4.6 4-1.1 8.1-1.7 13.5-1.4 2.3 0.1 4.7 1.2 6.4 1 1.7-0.2 3.5-2 5.2-2.8C61.5 10.9 63.3 10.6 65.7 10.5z" class="a"/><style>.a{fill: #333}</style></svg>