<svg xmlns="http://www.w3.org/2000/svg" viewBox="0 0 1083.6 166.5" width="100%"><style>.a{fill:#1B1A1B;}</style><path d="M150 155l-70-38.4L10 155V15h140V155z" fill="#2980BA"/><path d="M155.5 164.3l-75.5-41.4L4.5 164.3V9.5h151V164.3zM15.5 20.5V145.7l64.5-35.4 64.5 35.4V20.5H15.5z" class="a"/><path d="M279.6 94v7h25.4v54H170V15h135v54h-25.4v7h25.4v18H279.6z" fill="#24AE5F"/><path d="M310.5 160.5H164.5V9.5h146V160.5zM175.5 149.5h124v-43h-25.4v-18h25.4v-7h-25.4V63.5h25.4v-43H175.5V149.5z" class="a"/><path d="M391.6 15c7 0 13 1 17 2.6 12.4 5 21 17.2 21 31.2 16.2 10.4 26.8 28.2 26.8 48.6 0 24-14.8 44.8-35.8 53.4 -6.6 2.6-17.2 4.2-29 4.2h-66.6V15H391.6z" fill="#F29C1F"/><path d="M391.6 160.5h-72.1V9.5h72.1c7.5 0 14.2 1.1 19 3 13.9 5.6 23.2 18.5 24.3 33.3 16.9 11.9 26.9 31 26.9 51.6 0 25.8-15.4 48.7-39.2 58.5C415.2 158.8 403.9 160.5 391.6 160.5zM330.5 149.5h61.1c10.8 0 20.9-1.4 27-3.8 19.6-8 32.3-27 32.3-48.3 0-17.8-9.1-34.2-24.3-44l-2.5-1.6v-3c0-11.6-6.9-21.8-17.6-26.1 -3.5-1.4-8.9-2.2-14.9-2.2h-61.1V149.5z" class="a"/><path d="M609.8 85c0 38.6-31.4 70-70 70s-70-31.4-70-70h36.2V15h103.8V85z" fill="#2C3E50"/><path d="M539.8 160.5c-41.6 0-75.5-33.9-75.5-75.5v-5.5h36.2V9.5h114.8V85C615.3 126.6 581.4 160.5 539.8 160.5zM475.5 90.5c2.8 33 30.6 59 64.3 59 35.6 0 64.5-28.9 64.5-64.5V20.5h-92.8V90.5H475.5z" class="a"/><path d="M740.2 94v7h25.4v54H630.6V15h135v54h-25.4v7h25.4v18H740.2z" fill="#894B9D"/><path d="M771.1 160.5H625.1V9.5h146V160.5zM636.1 149.5h124v-43h-25.4v-18h25.4v-7h-25.4V63.5h25.4v-43H636.1V149.5z" class="a"/><path d="M925.6 85c0 38.6-31.4 70-70 70h-70V15h70C894.2 15 925.6 46.4 925.6 85z" fill="#D25627"/><path d="M855.6 160.5h-75.5V9.5h75.5c41.6 0 75.5 33.9 75.5 75.5C931.1 126.6 897.2 160.5 855.6 160.5zM791.1 149.5h64.5c35.6 0 64.5-28.9 64.5-64.5 0-35.6-28.9-64.5-64.5-64.5h-64.5V149.5z" class="a"/><path d="M916.6 155l76.8-140 77 140H916.6z" fill="#EE2A5A"/><path d="M1079.7 160.5h-172.4L993.4 3.6 1079.7 160.5zM925.9 149.5h135.2L993.4 26.4 925.9 149.5z" class="a"/></svg>