<svg xmlns="http://www.w3.org/2000/svg" width="430" height="430" viewBox="0 0 430.1 430.1" ><path d="M315.5 358.6c54.4-34.1 90.7-95.2 90.7-164.9C406.2 86.8 320.6 0 215 0 109.5 0 23.9 86.8 23.9 193.8c0 107 85.6 193.8 191.2 193.8 15.5 0 30.6-1.9 45.1-5.5 18.1 33 45.8 56.4 104.5 45.2v-32.8C364.6 394.4 327 385 315.5 358.6zM314.2 219.4c0 32.4-10.3 61.7-27 83.4 -21-22.4-53.9-40.8-95.7-38.4v3.9 34.2c0 0 28.3 1.1 47.8 34.5 -7.3 2.1-14.8 3.3-22.6 3.3 -53.9 0-97.6-54.1-97.6-120.9 0-8.6 0-41.4 0-49.9 0-66.8 43.7-120.9 97.6-120.9 53.9 0 97.6 54.1 97.6 120.9C314.2 178 314.2 210.8 314.2 219.4z" class="a"/><style>.a{fill: #AA2200}</style></svg>